<svg id="Layer_1" data-name="Layer 1" xmlns="http://www.w3.org/2000/svg" viewBox="0 0 956 306"><defs><style>.cls-1{fill:#ff0;}</style></defs><title>logo-yellow-bg</title><path class="cls-1" d="M938.77,3A14.24,14.24,0,0,1,953,17.23V288.77A14.24,14.24,0,0,1,938.77,303H17.23A14.24,14.24,0,0,1,3,288.77V17.23A14.24,14.24,0,0,1,17.23,3H938.77M742.17,89.8h52.5V252.7a10,10,0,0,0,10.2,10.2h27.6A10.12,10.12,0,0,0,843,252.7V89.8h52.2a10.12,10.12,0,0,0,10.5-10.2V57.4a10.26,10.26,0,0,0-10.5-10.5h-153c-5.91,0-10.2,4.42-10.2,10.5V79.6a10,10,0,0,0,10.2,10.2m-111.9,89.09L549.39,53.08l0-.09-.07-.09-.19-.27a12.6,12.6,0,0,0-10.91-5.73h-23.1c-5.91,0-10.2,4.42-10.2,10.5V252.7a10,10,0,0,0,10.2,10.2h25.2c6.08,0,10.5-4.29,10.5-10.2V133.75l80.59,123,0,.08.06.08.12.17a13.18,13.18,0,0,0,11,5.83H666a10.13,10.13,0,0,0,10.2-10.5V57.4a10.26,10.26,0,0,0-10.5-10.5h-25.2c-5.91,0-10.2,4.42-10.2,10.5V178.89m-320.7,84H439.78c6.08,0,10.5-4.29,10.5-10.2v-21a10,10,0,0,0-10.5-10.5h-92.1V57.1a10,10,0,0,0-10.2-10.2H309.57a10,10,0,0,0-10.19,10.2V252.7a10,10,0,0,0,10.19,10.2M151.79,115.08,110.18,53.94c-1.16-1.74-4.69-7-11.8-7H67.78A9.56,9.56,0,0,0,59.9,61.48l61.84,91.3-66,95.51-.12.18-.09.19a11,11,0,0,0-1.22,4.94,9.19,9.19,0,0,0,9.3,9.3h30.3c6.75,0,10.35-4.79,11.7-6.6l0,0,0-.05,44.66-64.29,45.48,64.25c3.52,5.56,8.19,6.73,11.5,6.73h31.8a9.31,9.31,0,0,0,9.3-9.3,11,11,0,0,0-1.52-4.94l-.09-.19-.12-.18-66-95.51,61.52-91.24a8.16,8.16,0,0,0,1.75-5.34,9.19,9.19,0,0,0-9.3-9.3h-29.1c-7.11,0-10.64,5.3-11.77,7l-41.92,61.18M938.77,0H17.23A17.28,17.28,0,0,0,0,17.23V288.77A17.28,17.28,0,0,0,17.23,306H938.77A17.28,17.28,0,0,0,956,288.77V17.23A17.28,17.28,0,0,0,938.77,0ZM742.17,86.8a6.93,6.93,0,0,1-7.2-7.2V57.4c0-4.5,3-7.5,7.2-7.5h153a7.25,7.25,0,0,1,7.5,7.5V79.6a7.18,7.18,0,0,1-7.5,7.2H840V252.7a7.18,7.18,0,0,1-7.5,7.2h-27.6a6.93,6.93,0,0,1-7.2-7.2V86.8ZM633.27,189.1V57.4c0-4.5,3-7.5,7.2-7.5h25.2a7.25,7.25,0,0,1,7.5,7.5v195a7.18,7.18,0,0,1-7.2,7.5h-23.4a10.23,10.23,0,0,1-8.7-4.8l-86.1-131.4v129c0,4.2-3,7.2-7.5,7.2h-25.2a6.93,6.93,0,0,1-7.2-7.2V57.4c0-4.5,3-7.5,7.2-7.5h23.1a9.76,9.76,0,0,1,8.7,4.8l86.4,134.4Zm-323.7,70.8a6.93,6.93,0,0,1-7.19-7.2V57.1a6.93,6.93,0,0,1,7.19-7.2h27.91a6.93,6.93,0,0,1,7.2,7.2V224.2h95.1a7.09,7.09,0,0,1,7.5,7.5v21c0,4.2-3,7.2-7.5,7.2ZM151.78,120.4l44.4-64.8c1.8-2.7,4.5-5.7,9.3-5.7h29.1a6.15,6.15,0,0,1,6.3,6.3,5.24,5.24,0,0,1-1.2,3.6l-62.7,93,67.2,97.2a8.53,8.53,0,0,1,1.2,3.6,6.34,6.34,0,0,1-6.3,6.3h-31.8c-4.8,0-7.5-3-9-5.4l-48-67.8-47.1,67.8c-1.8,2.4-4.5,5.4-9.3,5.4H63.58a6.15,6.15,0,0,1-6.3-6.3,8,8,0,0,1,.9-3.6l67.2-97.2-63-93a6.4,6.4,0,0,1-.9-3.6,6.15,6.15,0,0,1,6.3-6.3h30.6c4.8,0,7.5,3,9.3,5.7l44.1,64.8Z"/></svg>