<svg id="Layer_1" data-name="Layer 1" xmlns="http://www.w3.org/2000/svg" viewBox="0 0 2380.26 369.52"><defs><style>.cls-1,.cls-2,.cls-5{fill:blue;}.cls-2{font-size:300px;font-family:Rubik-Medium, Rubik;letter-spacing:0.1em;}.cls-3{letter-spacing:0.1em;}.cls-4{letter-spacing:0.08em;}.cls-5{font-size:260px;font-family:Rubik-Regular, Rubik;letter-spacing:0.06em;}</style></defs><title>logo-blue-small</title><path class="cls-1" d="M41.06,26.8H1025.3A14,14,0,0,1,1038.68,45L952.37,323A14,14,0,0,1,939,332.81H41.06a14,14,0,0,1-14-14V40.8a14,14,0,0,1,14-14m0-25h0a39,39,0,0,0-39,39v278a39.05,39.05,0,0,0,39,39H939a38.84,38.84,0,0,0,37.25-27.44l86.3-278A39,39,0,0,0,1025.3,1.81H41.07Z" transform="translate(-2.06 -1.8)"/><text class="cls-2" transform="translate(84.13 284.92)">X<tspan class="cls-3" x="227.1" y="0">LN</tspan><tspan class="cls-4" x="676.19" y="0">T</tspan></text><text class="cls-5" transform="translate(1095.56 274.11)">WEBSITE</text></svg>